name baseline.mot
datacolumns 19
datarows 29
range 2.28499400000000 2.33165700000000
endheader
time	ground_force1_vx	ground_force1_vy	ground_force1_vz	ground_force1_px	ground_force1_py	ground_force1_pz	ground_force2_vx	ground_force2_vy	ground_force2_vz	ground_force2_px	ground_force2_py	ground_force2_pz	ground_torque1_x	ground_torque1_y	ground_torque1_z	ground_torque2_x	ground_torque2_y	ground_torque2_z	
2.28499400000000	-0.60547700000000	43.62045100000000	-9.54002000000000	0.13986700000000	0.00000000000000	0.10605000000000	-68.27817100000000	786.10571000000004	-69.49952600000000	-0.09455600000000	0.00000000000000	-0.12681500000000	0.00000000000000	-3.16760300000000	0.00000000000000	0.00000000000000	-0.82472400000000	0.00000000000000	
2.28666100000000	-0.43835000000000	51.13302600000000	-10.75420100000000	0.14428500000000	0.00000000000000	0.10707200000000	-69.03130400000001	784.27538400000003	-69.22971400000000	-0.09532900000000	0.00000000000000	-0.12668500000000	0.00000000000000	-3.66960400000000	0.00000000000000	0.00000000000000	-0.98310700000000	0.00000000000000	
2.28832800000000	-0.19428800000000	58.73668300000000	-11.86549000000000	0.14827200000000	0.00000000000000	0.10800500000000	-69.80046299999999	782.34052999999994	-68.94019700000000	-0.09609800000000	0.00000000000000	-0.12655200000000	0.00000000000000	-4.15775000000000	0.00000000000000	0.00000000000000	-1.15220900000000	0.00000000000000	
2.28999000000000	0.13077200000000	66.33128900000000	-12.84801600000000	0.15189600000000	0.00000000000000	0.10886600000000	-70.58520700000000	780.29798600000004	-68.63064100000000	-0.09686500000000	0.00000000000000	-0.12641500000000	0.00000000000000	-4.62208700000000	0.00000000000000	0.00000000000000	-1.33203900000000	0.00000000000000	
2.29165400000000	0.53862500000000	73.84032400000000	-13.68413000000000	0.15521000000000	0.00000000000000	0.10966400000000	-71.38499600000000	778.14452200000005	-68.30071900000000	-0.09762700000000	0.00000000000000	-0.12627400000000	0.00000000000000	-5.05511200000000	0.00000000000000	0.00000000000000	-1.52258000000000	0.00000000000000	
2.29332600000000	1.02897000000000	81.21324900000000	-14.36457000000000	0.15825700000000	0.00000000000000	0.11040900000000	-72.19919500000000	775.87684700000000	-67.95011400000000	-0.09838600000000	0.00000000000000	-0.12613000000000	0.00000000000000	-5.45198000000000	0.00000000000000	0.00000000000000	-1.72378300000000	0.00000000000000	
2.29499000000000	1.59973300000000	88.42534800000000	-14.88790400000000	0.16107200000000	0.00000000000000	0.11110800000000	-73.02706900000000	773.49162000000001	-67.57851700000001	-0.09914100000000	0.00000000000000	-0.12598300000000	0.00000000000000	-5.81046300000000	0.00000000000000	0.00000000000000	-1.93557000000000	0.00000000000000	
2.29665900000000	2.24746300000000	95.47546900000000	-15.25943400000000	0.16368100000000	0.00000000000000	0.11176900000000	-73.86778300000000	770.98545200000001	-67.18563300000000	-0.09989200000000	0.00000000000000	-0.12583100000000	0.00000000000000	-6.13069400000000	0.00000000000000	0.00000000000000	-2.15783000000000	0.00000000000000	
2.29832800000000	2.96777600000000	102.38222500000001	-15.48974000000000	0.16611000000000	0.00000000000000	0.11239500000000	-74.72039700000001	768.35491900000000	-66.77117900000000	-0.10063800000000	0.00000000000000	-0.12567700000000	0.00000000000000	-6.41477000000000	0.00000000000000	0.00000000000000	-2.39042100000000	0.00000000000000	
2.29999400000000	3.75579000000000	109.17923200000000	-15.59304300000000	0.16837600000000	0.00000000000000	0.11299100000000	-75.58387100000000	765.59656700000005	-66.33488699999999	-0.10137900000000	0.00000000000000	-0.12551900000000	0.00000000000000	-6.66624900000000	0.00000000000000	0.00000000000000	-2.63317000000000	0.00000000000000	
2.30165700000000	4.60651600000000	115.90995400000000	-15.58555600000000	0.17049700000000	0.00000000000000	0.11356000000000	-76.45706000000000	762.70692299999996	-65.87650700000000	-0.10211700000000	0.00000000000000	-0.12535700000000	0.00000000000000	-6.88962000000000	0.00000000000000	0.00000000000000	-2.88586700000000	0.00000000000000	
2.30332900000000	5.51519600000000	122.62263500000000	-15.48396100000000	0.17248400000000	0.00000000000000	0.11410700000000	-77.33871600000001	759.68250699999999	-65.39580599999999	-0.10284900000000	0.00000000000000	-0.12519200000000	0.00000000000000	-7.08979000000000	0.00000000000000	0.00000000000000	-3.14827400000000	0.00000000000000	
2.30499300000000	6.47754700000000	129.36571300000000	-15.30411700000000	0.17435000000000	0.00000000000000	0.11463200000000	-78.22748799999999	756.51983700000005	-64.89257300000000	-0.10357700000000	0.00000000000000	-0.12502400000000	0.00000000000000	-7.27162100000000	0.00000000000000	0.00000000000000	-3.42011700000000	0.00000000000000	
2.30665900000000	7.48992500000000	136.18399400000001	-15.06004400000000	0.17610400000000	0.00000000000000	0.11513900000000	-79.12192200000000	753.21544400000005	-64.36661800000000	-0.10430000000000	0.00000000000000	-0.12485200000000	0.00000000000000	-7.43955100000000	0.00000000000000	0.00000000000000	-3.70108700000000	0.00000000000000	
2.30832900000000	8.54940800000000	143.11574700000000	-14.76323900000000	0.17775500000000	0.00000000000000	0.11563000000000	-80.02046300000001	749.76588400000003	-63.81777800000000	-0.10501900000000	0.00000000000000	-0.12467600000000	0.00000000000000	-7.59731500000000	0.00000000000000	0.00000000000000	-3.99084300000000	0.00000000000000	
2.30998700000000	9.65379600000000	150.19078200000001	-14.42229700000000	0.17930900000000	0.00000000000000	0.11610600000000	-80.92145400000000	746.16774799999996	-63.24591500000000	-0.10573300000000	0.00000000000000	-0.12449800000000	0.00000000000000	-7.74777300000000	0.00000000000000	0.00000000000000	-4.28901100000000	0.00000000000000	
2.31165900000000	10.80155300000000	157.42947599999999	-14.04281700000000	0.18077200000000	0.00000000000000	0.11656800000000	-81.82314400000000	742.41767400000003	-62.65092200000000	-0.10644200000000	0.00000000000000	-0.12431600000000	0.00000000000000	-7.89282500000000	0.00000000000000	0.00000000000000	-4.59518200000000	0.00000000000000	
2.31332800000000	11.99170600000000	164.84265600000001	-13.62755900000000	0.18215000000000	0.00000000000000	0.11701800000000	-82.72368299999999	738.51236400000005	-62.03272200000000	-0.10714700000000	0.00000000000000	-0.12413000000000	0.00000000000000	-8.03342900000000	0.00000000000000	0.00000000000000	-4.90891400000000	0.00000000000000	
2.31498700000000	13.22370200000000	172.43218300000001	-13.17678000000000	0.18344600000000	0.00000000000000	0.11745600000000	-83.62113100000001	734.44859399999996	-61.39127100000000	-0.10784700000000	0.00000000000000	-0.12394200000000	0.00000000000000	-8.16967800000000	0.00000000000000	0.00000000000000	-5.22973300000000	0.00000000000000	
2.31665700000000	14.49726500000000	180.19207499999999	-12.68870600000000	0.18466500000000	0.00000000000000	0.11788500000000	-84.51345900000000	730.22323200000005	-60.72656200000000	-0.10854400000000	0.00000000000000	-0.12375000000000	0.00000000000000	-8.30093400000000	0.00000000000000	0.00000000000000	-5.55713100000000	0.00000000000000	
2.31832600000000	15.81223600000000	188.10997800000001	-12.16006300000000	0.18581000000000	0.00000000000000	0.11830400000000	-85.39855000000000	725.83325100000002	-60.03862400000000	-0.10923600000000	0.00000000000000	-0.12355500000000	0.00000000000000	-8.42599600000000	0.00000000000000	0.00000000000000	-5.89057000000000	0.00000000000000	
2.31999500000000	17.16844200000000	196.16881400000000	-11.58663400000000	0.18688400000000	0.00000000000000	0.11871500000000	-86.27421200000001	721.27575000000002	-59.32752600000000	-0.10992400000000	0.00000000000000	-0.12335700000000	0.00000000000000	-8.54327900000000	0.00000000000000	0.00000000000000	-6.22948000000000	0.00000000000000	
2.32166000000000	18.56556600000000	204.34845000000001	-10.96378900000000	0.18788900000000	0.00000000000000	0.11911800000000	-87.13817299999999	716.54796299999998	-58.59337800000000	-0.11060900000000	0.00000000000000	-0.12315700000000	0.00000000000000	-8.65099200000000	0.00000000000000	0.00000000000000	-6.57326200000000	0.00000000000000	
2.32332300000000	20.00305600000000	212.62727100000001	-10.28694400000000	0.18882700000000	0.00000000000000	0.11951300000000	-87.98809300000001	711.64728400000001	-57.83633300000000	-0.11129100000000	0.00000000000000	-0.12295300000000	0.00000000000000	-8.74730200000000	0.00000000000000	0.00000000000000	-6.92128600000000	0.00000000000000	
2.32499600000000	21.48005500000000	220.98354900000001	-9.55195500000000	0.18970000000000	0.00000000000000	0.11990200000000	-88.82156900000000	706.57128100000000	-57.05658800000000	-0.11197000000000	0.00000000000000	-0.12274600000000	0.00000000000000	-8.83047300000000	0.00000000000000	0.00000000000000	-7.27289700000000	0.00000000000000	
2.32666200000000	22.99535900000000	229.39655200000001	-8.75539800000000	0.19050900000000	0.00000000000000	0.12028300000000	-89.63613800000000	701.31771500000002	-56.25438600000000	-0.11264600000000	0.00000000000000	-0.12253700000000	0.00000000000000	-8.89897500000000	0.00000000000000	0.00000000000000	-7.62741300000000	0.00000000000000	
2.32832100000000	24.54740200000000	237.84737300000000	-7.89476300000000	0.19125700000000	0.00000000000000	0.12065900000000	-90.42928700000000	695.88455599999998	-55.43001900000000	-0.11332000000000	0.00000000000000	-0.12232400000000	0.00000000000000	-8.95155900000000	0.00000000000000	0.00000000000000	-7.98412500000000	0.00000000000000	
2.32998800000000	26.13426300000000	246.31945600000000	-6.96855300000000	0.19194300000000	0.00000000000000	0.12102900000000	-91.19846099999999	690.27000399999997	-54.58382400000000	-0.11399100000000	0.00000000000000	-0.12211000000000	0.00000000000000	-8.98730400000000	0.00000000000000	0.00000000000000	-8.34230300000000	0.00000000000000	
2.33165700000000	27.75369100000000	254.79885700000000	-5.97629600000000	0.19257000000000	0.00000000000000	0.12139300000000	-91.94106400000000	684.47250299999996	-53.71619000000000	-0.11466100000000	0.00000000000000	-0.12189200000000	0.00000000000000	-9.00563100000000	0.00000000000000	0.00000000000000	-8.70119600000000	0.00000000000000	
